<svg width="17" height="18" viewBox="0 0 17 18" fill="none" xmlns="http://www.w3.org/2000/svg">
<path d="M9.84556 16.2027C9.70881 16.4452 9.51254 16.6465 9.2764 16.7864C9.04025 16.9263 8.77252 17 8.5 17C8.22748 17 7.95975 16.9263 7.7236 16.7864C7.48746 16.6465 7.29119 16.4452 7.15444 16.2027M13.1667 5.80085C13.1667 4.52759 12.675 3.30647 11.7998 2.40614C10.9247 1.5058 9.73768 1 8.5 1C7.26232 1 6.07534 1.5058 5.20017 2.40614C4.325 3.30647 3.83333 4.52759 3.83333 5.80085C3.83333 11.4018 1.5 13.0021 1.5 13.0021H15.5C15.5 13.0021 13.1667 11.4018 13.1667 5.80085Z" stroke="white" stroke-width="2" stroke-linecap="round" stroke-linejoin="round"/>
</svg>
